
<svg class="Union_4" xmlns="http://www.w3.org/2000/svg" fill="#fff" width="181" height="27" viewBox="25000 -16375.003 180.268 26.005">
				<path id="Union_4" d="M 25154.26953125 -16361.9970703125 L 25167.263671875 -16361.9970703125 L 25167.263671875 -16375.0029296875 C 25174.447265625 -16375.0029296875 25180.267578125 -16369.1826171875 25180.267578125 -16361.9970703125 L 25167.263671875 -16361.9970703125 L 25167.263671875 -16348.998046875 C 25160.083984375 -16348.998046875 25154.26953125 -16354.818359375 25154.26953125 -16361.9970703125 Z M 25109.21875 -16349.744140625 C 25108.1953125 -16350.3701171875 25107.677734375 -16351.3935546875 25107.64453125 -16352.8720703125 L 25107.64453125 -16352.9228515625 L 25111.259765625 -16352.9228515625 L 25111.259765625 -16352.87890625 C 25111.259765625 -16352.2841796875 25111.35546875 -16351.8671875 25111.556640625 -16351.6015625 C 25111.77734375 -16351.279296875 25112.18359375 -16351.109375 25112.720703125 -16351.109375 C 25113.546875 -16351.109375 25114.009765625 -16351.8544921875 25114.009765625 -16353.20703125 L 25114.009765625 -16355.6650390625 C 25113.47265625 -16354.73046875 25112.48046875 -16354.19921875 25111.265625 -16354.19921875 C 25110.103515625 -16354.19921875 25109.244140625 -16354.49609375 25108.625 -16355.115234375 C 25107.4296875 -16356.31640625 25107.4296875 -16358.49609375 25107.4375 -16360.41796875 L 25107.4375 -16360.77734375 C 25107.4375 -16363.513671875 25107.4375 -16367.26171875 25111.291015625 -16367.26171875 C 25112.63671875 -16367.26171875 25113.6875 -16366.642578125 25114.185546875 -16365.548828125 L 25114.185546875 -16367.0087890625 L 25117.69921875 -16367.0087890625 L 25117.69921875 -16353.4345703125 C 25117.69921875 -16352.966796875 25117.69921875 -16351.8544921875 25117.080078125 -16350.8623046875 C 25116.302734375 -16349.6298828125 25114.849609375 -16348.998046875 25112.744140625 -16348.998046875 C 25111.19140625 -16348.998046875 25110.033203125 -16349.2451171875 25109.21875 -16349.744140625 Z M 25111.05859375 -16360.1142578125 C 25111.05859375 -16360.01953125 25111.05078125 -16359.91796875 25111.05078125 -16359.8046875 C 25111.044921875 -16358.888671875 25111.025390625 -16357.498046875 25111.658203125 -16356.859375 C 25111.892578125 -16356.6259765625 25112.1953125 -16356.505859375 25112.568359375 -16356.505859375 C 25113.80078125 -16356.505859375 25114.009765625 -16357.7568359375 25114.009765625 -16360.5498046875 C 25114.009765625 -16363.2861328125 25113.908203125 -16364.9482421875 25112.59375 -16364.9482421875 C 25111.31640625 -16364.9482421875 25111.05859375 -16364.1396484375 25111.05859375 -16360.1142578125 Z M 25180.2421875 -16361.251953125 C 25179.869140625 -16354.6669921875 25174.599609375 -16349.396484375 25168.015625 -16349.0234375 C 25169.24609375 -16355.677734375 25173.595703125 -16360.01953125 25180.2421875 -16361.251953125 Z M 25138.693359375 -16354.9697265625 C 25138.015625 -16355.6845703125 25137.7265625 -16356.7392578125 25137.814453125 -16358.2060546875 L 25137.814453125 -16358.2431640625 L 25141.4296875 -16358.2431640625 L 25141.4296875 -16358.19921875 C 25141.396484375 -16357.4912109375 25141.455078125 -16357.0048828125 25141.60546875 -16356.6640625 C 25141.80859375 -16356.259765625 25142.193359375 -16356.076171875 25142.86328125 -16356.076171875 C 25143.501953125 -16356.076171875 25144.15234375 -16356.474609375 25144.15234375 -16357.359375 C 25144.15234375 -16358.5595703125 25142.919921875 -16359.0908203125 25141.4921875 -16359.703125 C 25139.767578125 -16360.44921875 25137.814453125 -16361.2958984375 25137.814453125 -16363.58984375 C 25137.814453125 -16364.873046875 25138.3828125 -16365.845703125 25139.5078125 -16366.484375 C 25140.380859375 -16366.9892578125 25141.60546875 -16367.26171875 25142.939453125 -16367.26171875 C 25144.51953125 -16367.26171875 25145.828125 -16366.7939453125 25146.6171875 -16365.9404296875 C 25147.255859375 -16365.251953125 25147.5390625 -16364.3486328125 25147.45703125 -16363.2548828125 L 25147.45703125 -16363.216796875 L 25143.84375 -16363.216796875 L 25143.84375 -16363.26171875 C 25143.84375 -16364.1708984375 25143.736328125 -16364.6708984375 25143.501953125 -16364.8857421875 C 25143.26171875 -16365.125 25142.93359375 -16365.1572265625 25142.611328125 -16365.1572265625 C 25141.845703125 -16365.1572265625 25141.4296875 -16364.68359375 25141.4296875 -16363.8173828125 C 25141.4296875 -16363.0087890625 25142.50390625 -16362.5283203125 25143.748046875 -16361.978515625 C 25145.537109375 -16361.1884765625 25147.767578125 -16360.203125 25147.767578125 -16357.73828125 C 25147.767578125 -16355.3623046875 25145.80859375 -16353.7626953125 25142.888671875 -16353.7626953125 C 25140.77734375 -16353.7626953125 25139.482421875 -16354.1357421875 25138.693359375 -16354.9697265625 Z M 25125.6484375 -16357.9208984375 C 25125.6484375 -16362.0224609375 25128.740234375 -16362.3642578125 25131.640625 -16362.3642578125 C 25131.85546875 -16362.3642578125 25132.076171875 -16362.3642578125 25132.296875 -16362.357421875 L 25132.296875 -16363.3115234375 C 25132.296875 -16364.31640625 25132.189453125 -16365.1572265625 25130.880859375 -16365.1572265625 C 25129.67578125 -16365.1572265625 25129.57421875 -16364.2470703125 25129.57421875 -16363.236328125 L 25129.57421875 -16363.185546875 L 25125.958984375 -16363.185546875 L 25125.958984375 -16363.236328125 C 25125.958984375 -16364.740234375 25126.400390625 -16365.7822265625 25127.3046875 -16366.4150390625 C 25128.0703125 -16366.9833984375 25129.181640625 -16367.26171875 25130.705078125 -16367.26171875 C 25135.5078125 -16367.26171875 25135.912109375 -16365.01171875 25135.912109375 -16362.9013671875 L 25135.912109375 -16356.4677734375 C 25135.912109375 -16355.8232421875 25135.982421875 -16355.1533203125 25136.044921875 -16354.5087890625 C 25136.056640625 -16354.357421875 25136.076171875 -16354.2119140625 25136.08984375 -16354.06640625 L 25136.095703125 -16354.015625 L 25132.658203125 -16354.015625 L 25132.505859375 -16355.7099609375 C 25131.72265625 -16354.3828125 25130.6484375 -16353.7626953125 25129.119140625 -16353.7626953125 C 25127.822265625 -16353.7626953125 25125.6484375 -16354.30078125 25125.6484375 -16357.9208984375 Z M 25131.923828125 -16360.234375 C 25130.326171875 -16360.18359375 25129.26953125 -16360.1455078125 25129.26953125 -16358.0732421875 C 25129.26953125 -16356.2841796875 25129.998046875 -16356.076171875 25130.552734375 -16356.076171875 C 25131.013671875 -16356.076171875 25131.38671875 -16356.21484375 25131.666015625 -16356.4990234375 C 25132.361328125 -16357.2138671875 25132.328125 -16358.6982421875 25132.302734375 -16359.779296875 C 25132.296875 -16359.9501953125 25132.296875 -16360.1015625 25132.296875 -16360.2470703125 C 25132.171875 -16360.2470703125 25132.044921875 -16360.240234375 25131.923828125 -16360.234375 Z M 25096.2578125 -16354.5087890625 C 25095.61328125 -16355.02734375 25095.271484375 -16355.759765625 25095.271484375 -16356.619140625 L 25095.271484375 -16367.0087890625 L 25098.962890625 -16367.0087890625 L 25098.962890625 -16358.0224609375 C 25098.962890625 -16356.404296875 25099.486328125 -16356.076171875 25100.271484375 -16356.076171875 C 25101.357421875 -16356.076171875 25101.5859375 -16356.853515625 25101.5859375 -16358.0224609375 L 25101.5859375 -16367.0087890625 L 25105.275390625 -16367.0087890625 L 25105.275390625 -16356.619140625 C 25105.275390625 -16355.8486328125 25105.3125 -16355.0078125 25105.40234375 -16354.06640625 L 25105.408203125 -16354.015625 L 25101.5859375 -16354.015625 L 25101.5859375 -16355.2919921875 C 25101.212890625 -16354.7236328125 25100.794921875 -16354.337890625 25100.314453125 -16354.123046875 C 25099.822265625 -16353.876953125 25099.25390625 -16353.7626953125 25098.533203125 -16353.7626953125 C 25097.66015625 -16353.7626953125 25096.845703125 -16354.0283203125 25096.2578125 -16354.5087890625 Z M 25083.435546875 -16355.7099609375 C 25082.65234375 -16357.0048828125 25082.544921875 -16358.86328125 25082.544921875 -16360.6767578125 C 25082.544921875 -16364.013671875 25082.955078125 -16367.26171875 25087.853515625 -16367.26171875 C 25092.75 -16367.26171875 25093.162109375 -16364.013671875 25093.162109375 -16360.6767578125 C 25093.162109375 -16358.86328125 25093.0546875 -16357.0048828125 25092.263671875 -16355.7099609375 C 25091.4609375 -16354.3828125 25090.05859375 -16353.7626953125 25087.853515625 -16353.7626953125 C 25085.640625 -16353.7626953125 25084.23828125 -16354.3828125 25083.435546875 -16355.7099609375 Z M 25086.234375 -16360.884765625 C 25086.234375 -16357.037109375 25086.5390625 -16356.15234375 25087.853515625 -16356.15234375 C 25089.16796875 -16356.15234375 25089.46484375 -16357.037109375 25089.46484375 -16360.884765625 C 25089.46484375 -16363.6591796875 25089.3125 -16364.873046875 25087.853515625 -16364.873046875 C 25086.38671875 -16364.873046875 25086.234375 -16363.6591796875 25086.234375 -16360.884765625 Z M 25047.876953125 -16355.703125 C 25047.0859375 -16357.0048828125 25046.978515625 -16358.86328125 25046.978515625 -16360.6767578125 C 25046.978515625 -16364.0068359375 25047.390625 -16367.26171875 25052.287109375 -16367.26171875 C 25054.087890625 -16367.26171875 25055.3828125 -16366.83203125 25056.236328125 -16365.953125 C 25057.55859375 -16364.5947265625 25057.666015625 -16362.2568359375 25057.595703125 -16359.9375 L 25057.595703125 -16359.892578125 L 25050.6953125 -16359.892578125 C 25050.6953125 -16358.5595703125 25050.712890625 -16356.15234375 25052.287109375 -16356.15234375 C 25053.2734375 -16356.15234375 25053.779296875 -16356.91015625 25053.779296875 -16358.4013671875 L 25053.779296875 -16358.4521484375 L 25057.525390625 -16358.4521484375 L 25057.51953125 -16358.4013671875 C 25057.46875 -16356.9794921875 25056.98828125 -16355.810546875 25056.12890625 -16355.02734375 C 25055.244140625 -16354.19921875 25053.91796875 -16353.7626953125 25052.287109375 -16353.7626953125 C 25050.08203125 -16353.7626953125 25048.6796875 -16354.3828125 25047.876953125 -16355.703125 Z M 25050.896484375 -16363.8994140625 C 25050.6953125 -16363.298828125 25050.6953125 -16362.546875 25050.6953125 -16362.00390625 L 25050.6953125 -16361.9970703125 L 25053.904296875 -16361.9970703125 L 25053.904296875 -16362.060546875 C 25053.904296875 -16362.9267578125 25053.904296875 -16364.0068359375 25053.341796875 -16364.5693359375 C 25053.08984375 -16364.822265625 25052.7421875 -16364.9482421875 25052.287109375 -16364.9482421875 C 25051.591796875 -16364.9482421875 25051.13671875 -16364.607421875 25050.896484375 -16363.8994140625 Z M 25015.9375 -16354.5087890625 C 25015.29296875 -16355.02734375 25014.951171875 -16355.759765625 25014.951171875 -16356.619140625 L 25014.951171875 -16367.0087890625 L 25018.642578125 -16367.0087890625 L 25018.642578125 -16358.0224609375 C 25018.642578125 -16356.404296875 25019.16796875 -16356.076171875 25019.951171875 -16356.076171875 C 25021.037109375 -16356.076171875 25021.259765625 -16356.853515625 25021.259765625 -16358.0224609375 L 25021.259765625 -16367.0087890625 L 25024.955078125 -16367.0087890625 L 25024.955078125 -16356.619140625 C 25024.955078125 -16355.8486328125 25024.994140625 -16355.0078125 25025.08203125 -16354.06640625 L 25025.087890625 -16354.015625 L 25021.259765625 -16354.015625 L 25021.259765625 -16355.2919921875 C 25020.892578125 -16354.7236328125 25020.474609375 -16354.337890625 25019.994140625 -16354.123046875 C 25019.501953125 -16353.876953125 25018.93359375 -16353.7626953125 25018.212890625 -16353.7626953125 C 25017.333984375 -16353.7626953125 25016.525390625 -16354.0283203125 25015.9375 -16354.5087890625 Z M 25040.3125 -16356.796875 L 25040.3125 -16364.6953125 L 25038.859375 -16364.6953125 L 25038.859375 -16367.0087890625 L 25040.3125 -16367.0087890625 L 25040.3125 -16369.037109375 L 25040.337890625 -16369.0439453125 L 25044.001953125 -16370.6865234375 L 25044.001953125 -16367.0087890625 L 25045.8671875 -16367.0087890625 L 25045.8671875 -16364.6953125 L 25044.001953125 -16364.6953125 L 25044.001953125 -16357.7822265625 C 25044.001953125 -16357.3271484375 25044.001953125 -16356.935546875 25044.140625 -16356.6767578125 C 25044.287109375 -16356.3984375 25044.58984375 -16356.2783203125 25045.107421875 -16356.2783203125 C 25045.330078125 -16356.2783203125 25045.5625 -16356.2783203125 25045.734375 -16356.3291015625 L 25045.791015625 -16356.341796875 L 25045.791015625 -16354.0224609375 L 25045.75390625 -16354.015625 C 25045.669921875 -16354.009765625 25045.595703125 -16354.0029296875 25045.513671875 -16353.990234375 C 25045.08984375 -16353.9462890625 25044.615234375 -16353.8896484375 25043.8828125 -16353.8896484375 C 25040.482421875 -16353.8896484375 25040.3125 -16356.3095703125 25040.3125 -16356.796875 Z M 25120.158203125 -16354.015625 L 25120.158203125 -16372.55078125 L 25123.85546875 -16372.55078125 L 25123.85546875 -16354.015625 L 25120.158203125 -16354.015625 Z M 25068.388671875 -16354.015625 L 25068.388671875 -16372.55078125 L 25074.873046875 -16372.55078125 C 25079.935546875 -16372.55078125 25080.927734375 -16369.1884765625 25080.927734375 -16363.3876953125 C 25080.927734375 -16363.2294921875 25080.927734375 -16363.0654296875 25080.927734375 -16362.888671875 C 25080.939453125 -16360.8720703125 25080.970703125 -16357.50390625 25079.04296875 -16355.5576171875 C 25078.025390625 -16354.5341796875 25076.572265625 -16354.015625 25074.720703125 -16354.015625 L 25068.388671875 -16354.015625 Z M 25072.337890625 -16356.94140625 L 25074.158203125 -16356.94140625 C 25076.541015625 -16356.94140625 25076.92578125 -16358.8125 25076.92578125 -16363.2861328125 C 25076.92578125 -16366.6865234375 25076.92578125 -16369.625 25074.28515625 -16369.625 L 25072.337890625 -16369.625 L 25072.337890625 -16356.94140625 Z M 25059.66796875 -16354.015625 L 25059.66796875 -16367.0087890625 L 25063.181640625 -16367.0087890625 L 25063.181640625 -16365.3974609375 C 25063.783203125 -16366.6669921875 25064.849609375 -16367.26171875 25066.537109375 -16367.26171875 L 25066.58203125 -16367.26171875 L 25066.58203125 -16363.9501953125 L 25066.53125 -16363.9560546875 C 25066.373046875 -16363.962890625 25066.21484375 -16363.96875 25066.0703125 -16363.96875 C 25064.8828125 -16363.96875 25064.1171875 -16363.646484375 25063.712890625 -16362.9833984375 C 25063.359375 -16362.3955078125 25063.359375 -16361.63671875 25063.359375 -16361.0869140625 L 25063.359375 -16354.015625 L 25059.66796875 -16354.015625 Z M 25033.734375 -16354.015625 L 25033.734375 -16362.951171875 C 25033.734375 -16364.15234375 25033.51171875 -16364.9482421875 25032.42578125 -16364.9482421875 C 25031.34375 -16364.9482421875 25031.1171875 -16364.15234375 25031.1171875 -16362.951171875 L 25031.1171875 -16354.015625 L 25027.42578125 -16354.015625 L 25027.42578125 -16367.0087890625 L 25031.1171875 -16367.0087890625 L 25031.1171875 -16365.732421875 C 25031.458984375 -16366.26953125 25031.8828125 -16366.6611328125 25032.380859375 -16366.9013671875 C 25032.8671875 -16367.1416015625 25033.455078125 -16367.26171875 25034.1640625 -16367.26171875 C 25035.041015625 -16367.26171875 25035.849609375 -16366.99609375 25036.4453125 -16366.515625 C 25037.08984375 -16365.998046875 25037.4296875 -16365.2646484375 25037.4296875 -16364.4052734375 L 25037.4296875 -16354.015625 L 25033.734375 -16354.015625 Z M 25008.279296875 -16354.015625 L 25008.279296875 -16362.244140625 L 25003.94921875 -16362.244140625 L 25003.94921875 -16354.015625 L 25000 -16354.015625 L 25000 -16372.55078125 L 25003.94921875 -16372.55078125 L 25003.94921875 -16365.169921875 L 25008.279296875 -16365.169921875 L 25008.279296875 -16372.55078125 L 25012.228515625 -16372.55078125 L 25012.228515625 -16354.015625 L 25008.279296875 -16354.015625 Z M 25166.517578125 -16374.9775390625 C 25165.28515625 -16368.3232421875 25160.943359375 -16363.9814453125 25154.2890625 -16362.7490234375 C 25154.662109375 -16369.328125 25159.939453125 -16374.6044921875 25166.517578125 -16374.9775390625 Z">
				</path>
			</svg>